# xmcd
#
# Track frame offsets:
#	150
#	10877
#	21290
#	34802
#	49790
#	59507
#	69745
#	76830
#	85240
#
# Disc length: 1287 seconds
#
# Revision: 1
# Processed by: cddbd v1.5.1PL2 Copyright (c) Steve Scherf et al.
# Submitted via: audiograbber 1.83.01
#
DISCID=6f050509
DTITLE=Arons söner - Arons söner
DYEAR=1900
DGENRE=
TTITLE0=Säg känner du det underbara namnet 2,23
TTITLE1=Vill du från syndernas börda bli fri (There is power in the blood) 2,18
TTITLE2=Vi äro kämpar 3,00
TTITLE3=Sjung halleluja 3,19
TTITLE4=Vi måste ha fler med till himlen 2,09
TTITLE5=Säg vill du ej följa med 2,16
TTITLE6=Endast korsets väg leder hem till min Gud 1,34
TTITLE7=Vi reser hem (I'll fly away) 1,52
TTITLE8=O, hur saligt att få vandra 2,31
EXTD=
EXTT0=
EXTT1=
EXTT2=
EXTT3=
EXTT4=
EXTT5=
EXTT6=
EXTT7=
EXTT8=
PLAYORDER=
